<?xml version="1.0" ?><!-- Uploaded to: SVG Repo, www.svgrepo.com, Generator: SVG Repo Mixer Tools -->
<svg width="800px" height="800px" viewBox="0 0 50 50" data-name="Layer 1" id="Layer_1" xmlns="http://www.w3.org/2000/svg"><defs><style>.cls-1{fill:#231f20;}.cls-2{fill:#ffba50;}.cls-3{fill:#7cc05b;}.cls-4{fill:#00a1d3;}.cls-5{fill:#ff8e5a;}</style></defs><title/><path class="cls-1" d="M43,20.646H39.054V19.46a2.5,2.5,0,0,0-2.486-2.5c-2.412-.007-6.706-.006-11.068,0V14.706l9.305-4.56a.5.5,0,0,0,0-.9l-9.585-4.7a.5.5,0,0,0-.44,0L15.2,9.247a.5.5,0,0,0,0,.9l9.305,4.56v2.253l-11.066.015a2.5,2.5,0,0,0-2.488,2.5v1.172H7a2.5,2.5,0,0,0-2.5,2.5v3.707a2.5,2.5,0,0,0,2.5,2.5h8.892a2.5,2.5,0,0,0,2.5-2.5v-1.36c.012,0,.022.007.035.007H24.5v8.554a5.735,5.735,0,1,0,1,0V25.5h6.108v1.353a2.5,2.5,0,0,0,2.5,2.5H43a2.5,2.5,0,0,0,2.5-2.5V23.146A2.5,2.5,0,0,0,43,20.646Zm-4.946,0H34.108a2.5,2.5,0,0,0-2.5,2.5V24.5H18.427c-.013,0-.023.006-.035.007V23.146a2.5,2.5,0,0,0-2.5-2.5H11.946V19.474a1.5,1.5,0,0,1,1.49-1.5c5.011-.008,18.122-.027,23.129-.014a1.5,1.5,0,0,1,1.489,1.5Z"/><polygon class="cls-2" points="25 5.557 33.448 9.697 25 13.837 16.552 9.697 25 5.557"/><path class="cls-3" d="M29.735,39.764A4.735,4.735,0,1,1,25,35.029,4.741,4.741,0,0,1,29.735,39.764Z"/><rect class="cls-4" height="6.707" rx="1.5" width="11.892" x="5.5" y="21.646"/><rect class="cls-5" height="6.707" rx="1.5" width="11.892" x="32.608" y="21.646"/><path class="cls-1" d="M22.482,9.2a.5.5,0,1,0,.5.5A.5.5,0,0,0,22.482,9.2Z"/><path class="cls-1" d="M25.525,9.7a.5.5,0,1,0-.5.5A.5.5,0,0,0,25.525,9.7Z"/><path class="cls-1" d="M27.518,10.2a.5.5,0,1,0-.5-.5A.5.5,0,0,0,27.518,10.2Z"/><path class="cls-1" d="M22.482,39.263a.5.5,0,1,0,.5.5A.5.5,0,0,0,22.482,39.263Z"/><path class="cls-1" d="M24.522,39.764a.5.5,0,1,0,.5-.5A.5.5,0,0,0,24.522,39.764Z"/><path class="cls-1" d="M27.518,40.266a.5.5,0,1,0-.5-.5A.5.5,0,0,0,27.518,40.266Z"/><circle class="cls-1" cx="36.037" cy="25" r="0.502"/><circle class="cls-1" cx="38.578" cy="25" r="0.502"/><circle class="cls-1" cx="41.072" cy="25" r="0.502"/><circle class="cls-1" cx="8.928" cy="25" r="0.502"/><circle class="cls-1" cx="11.47" cy="25" r="0.502"/><circle class="cls-1" cx="13.963" cy="25" r="0.502"/></svg>